<svg width="375" height="73" viewBox="0 0 375 73" fill="none" xmlns="http://www.w3.org/2000/svg">
<path d="M3.64224 14.0425C3.64224 10.8655 12.5707 8.49645 30.4276 6.93534C35.1109 6.93534 39.3149 7.59265 43.0397 8.90727C48.5446 12.7416 51.2971 18.3424 51.2971 25.7097L50.8452 51.3858L50.3111 53.3988C48.2023 61.8343 41.2595 66.052 29.4827 66.052H24.101C16.4871 66.052 10.8316 64.3814 7.13419 61.0401C2.58781 56.5211 0.314617 51.8103 0.314617 46.9079L1.75248 20.0404C2.02636 19.0819 2.65628 17.0825 3.64224 14.0425ZM19.6231 22.2999L20.6912 51.2626V52.9469C20.6912 53.9877 22.6083 54.508 26.4426 54.508H28.9075C35.1246 54.508 38.2331 50.9339 38.2331 43.7857V41.5673L37.7401 20.7388C37.7401 19.0408 35.8367 17.959 32.0298 17.4934H25.3745C22.7179 17.4934 20.8007 19.0956 19.6231 22.2999ZM70.4412 23.7378C71.5367 23.7104 72.7007 23.6967 73.9332 23.6967C79.5477 23.6967 84.4638 24.5457 88.6815 26.2438C91.2834 27.8049 93.0773 30.2561 94.0632 33.5974C94.2002 36.747 94.2687 39.4036 94.2687 41.5673C94.2687 42.6354 94.255 43.5803 94.2276 44.4019C94.118 46.8668 93.5977 49.7973 92.6665 53.1934C91.1054 56.3978 84.8609 58 73.9332 58H70.5234C62.3618 57.7535 57.6237 56.6306 56.3091 54.6313C55.0766 52.8785 54.4604 50.6053 54.4604 47.8117C54.7891 45.8124 55.0219 43.8953 55.1588 42.0603L58.3632 17.7809L53.9674 17.6577C54.433 14.3438 54.7891 11.3859 55.0356 8.78402L55.1177 8.49645L70.3591 6.97643C71.7011 7.16814 71.7285 12.7553 70.4412 23.7378ZM69.2498 45.3879C69.1403 48.5101 69.1814 50.5231 69.3731 51.4269C69.7565 51.8103 70.8931 52.0294 72.7829 52.0842H73.0705C74.9054 52.0842 76.2338 51.6049 77.0554 50.6464C78.7534 45.251 79.6025 40.9921 79.6025 37.8699V35.6104L79.4792 33.4742C79.3697 32.05 78.9725 31.2284 78.2878 31.0093L75.9051 30.4752C73.1937 30.4752 71.4957 31.8994 70.811 34.7477C69.6607 38.2534 69.1403 41.8001 69.2498 45.3879ZM101.17 37.4591L97.0622 36.3499L96.939 35.7748C97.1581 28.4074 97.8565 24.7101 99.0341 24.6827L105.073 24.2719C106.087 23.8337 107.305 23.6009 108.729 23.5735L116.453 23.6145C124.395 23.7241 129.079 24.5731 130.503 26.1616C132.173 27.6953 133.022 31.557 133.05 37.7467V38.897L121.999 39.1435C120.465 39.1435 119.712 39.0065 119.739 38.7326C119.246 38.76 118.849 36.1993 118.548 31.0504C118.028 30.3657 117.261 30.037 116.247 30.0644C112.742 30.0644 110.989 30.8723 110.989 32.4882L111.153 35.0353L110.866 40.7457L110.291 55.8637L110.455 58.986C109.825 59.6707 107.593 60.1226 103.759 60.3417L100.349 60.506C100.267 60.5334 100.198 60.5471 100.143 60.5471C99.7051 60.5471 99.3491 59.9445 99.0752 58.7395L99.0341 57.6713L101.458 40.417L101.17 37.4591ZM145.087 42.7587H149.647L152.482 43.0462L154.166 42.7587L155.029 44.4841C154.645 47.3598 154.453 52.0842 154.453 58.6573V66.5861L151.619 66.8737H137.692C136.377 65.7508 135.72 64.3403 135.72 62.6422V61.7795H141.677L141.389 58.9449L141.102 43.9089L140.814 43.0462L145.087 42.7587ZM135.967 34.8299C135.994 32.3102 139.116 30.6806 145.333 29.9411C145.854 29.859 146.374 29.7905 146.894 29.7357C147.88 29.6262 148.853 29.5714 149.811 29.5714C150.715 29.5714 151.605 29.6125 152.482 29.6947C154.317 29.9138 155.782 30.3383 156.877 30.9682C157.973 31.5707 158.562 32.2691 158.644 33.0634V33.1455C158.644 33.6659 158.425 34.2 157.987 34.7477L157.206 35.5693C156.302 36.3636 155.001 37.0483 153.303 37.6234C151.55 38.226 149.688 38.6231 147.716 38.8148C147.579 38.8422 147.456 38.8559 147.346 38.8559C146.415 39.0202 145.566 39.1024 144.799 39.1024H144.224L142.992 38.9381C142.663 38.9107 142.348 38.8696 142.047 38.8148H141.8C139.801 38.7326 138.267 38.2397 137.199 37.3359C136.46 36.7881 136.049 36.1856 135.967 35.5283V34.8299ZM184.69 29.4071L180.787 29.6125C177.336 30.9271 176.076 35.0079 177.007 41.8549V42.923C176.925 46.5656 178.678 48.2773 182.266 48.0582H183.745C185.963 47.9487 187.072 47.6063 187.072 47.0312L187.113 46.1684L187.976 31.7077C187.292 30.0918 186.196 29.3249 184.69 29.4071ZM201.862 34.5834C202.054 42.5259 202.149 47.442 202.149 49.3317V49.9069C202.095 52.9743 201.793 56.7949 201.246 61.3687L200.958 63.505C200.903 65.3399 199.096 67.3666 195.535 69.5851C190.633 71.3927 184.977 72.3923 178.568 72.584L177.706 72.6251C172.475 72.4608 168.572 71.9267 165.997 71.0229C163.505 69.9822 161.93 66.8052 161.273 61.492V60.7936C161.328 58.9586 161.848 58.0137 162.834 57.9589L165.217 58.1643L170.475 57.7535L175.693 57.8357L176.309 57.7946C178.171 57.7124 178.979 58.1917 178.733 59.2325L178.815 61.1222L178.733 64.9017C180.239 65.2578 181.841 65.4358 183.539 65.4358C186.114 65.3263 187.606 63.546 188.017 60.0952C188.483 56.0692 188.51 53.3851 188.099 52.0431C186.045 52.4266 184.347 52.6457 183.005 52.7005L178.733 52.9059C169.311 53.2345 163.82 51.2626 162.259 46.9901L161.889 45.922L161.807 32.5704C161.862 28.8182 164.121 25.874 168.586 23.7378C171.571 22.9435 174.926 22.4916 178.651 22.3821C189.934 22.5738 196.425 23.7515 198.123 25.9151C200.232 27.175 201.478 30.0644 201.862 34.5834ZM226.881 57.9178C224.635 58.1096 222.485 58.2054 220.431 58.2054C217.254 58.2054 214.337 57.9726 211.68 57.507C208.257 56.5758 206.285 54.9873 205.765 52.7415C205.135 50.0027 204.82 47.1544 204.82 44.1965C204.82 43.6214 204.833 43.0599 204.861 42.5122C204.943 41.3071 205.299 40.061 205.929 38.7737C207.326 36.2814 213.611 34.5012 224.785 33.4331L228.236 33.0634C229.168 33.0086 230.071 32.9675 230.948 32.9401V27.8049C230.838 24.3814 229.482 22.7518 226.881 22.9162C225.484 22.9983 224.443 23.1626 223.758 23.4091C223.101 23.6556 222.786 25.0798 222.814 27.6816L223.183 29.5714C223.211 30.5574 222.293 31.0914 220.431 31.1736C216.295 31.6118 211.763 31.9541 206.833 32.2006C205.847 32.2554 205.326 31.3653 205.272 29.5303L205.231 28.7909C205.614 25.0661 207.531 21.7522 210.982 18.8491C214.351 17.151 217.541 16.302 220.554 16.302H221.129L221.951 16.2609C228.305 16.2883 233.865 16.7813 238.63 17.7399C242.108 19.6296 243.889 21.4783 243.971 23.2859L244.258 25.5043C244.395 28.7909 244.546 32.8443 244.71 37.6645C244.902 42.4848 244.655 46.634 243.971 50.1123C243.943 50.9613 244.313 51.3858 245.08 51.3858L247.298 51.4269C247.928 51.4817 248.243 51.7967 248.243 52.3718V52.454C248.134 53.8781 247.915 55.3845 247.586 56.973C247.367 57.822 246.846 58.2328 246.025 58.2054L237.808 58.2465C233.782 58.2465 230.14 58.1369 226.881 57.9178ZM229.674 42.0192C229.647 41.9918 229.633 41.9507 229.633 41.8959C229.606 41.7316 229.578 41.5399 229.551 41.3208C229.551 41.0743 229.551 40.8278 229.551 40.5813C229.551 40.3074 229.551 40.0473 229.551 39.8008C229.551 39.5543 229.565 39.3626 229.592 39.2256V38.7737C229.565 37.7878 228.976 37.3633 227.826 37.5002L224.909 37.7056C223.32 37.8699 222.334 38.5135 221.951 39.6364C220.581 43.2516 220.006 46.6888 220.225 49.948C220.253 52.2759 221.663 53.3441 224.457 53.1523C227.196 52.988 228.77 52.1801 229.181 50.7285L229.222 50.482C229.25 50.2082 229.428 49.9617 229.756 49.7426L229.674 42.0192ZM301.157 8.82511C302.225 9.94801 303.046 12.1116 303.621 15.316L302.225 41.8138C301.567 48.6881 297.966 53.6727 291.42 56.7675C288.544 57.4249 284.012 57.7946 277.822 57.8768H275.727C269.784 57.8768 262.129 57.5755 252.762 56.973L253.584 12.81L245.162 12.3171L245.532 0.15685C247.367 0.0472989 249.476 -0.00747679 251.858 -0.00747679C257.747 -0.00747679 265.306 0.348565 274.536 1.06065C287.956 2.43004 296.829 5.01819 301.157 8.82511ZM265.251 46.4149C267.606 46.771 269.428 46.9901 270.715 47.0722L273.96 47.3187C278.972 46.5245 281.519 45.4838 281.602 44.1965C283.163 37.8425 284.395 29.2428 285.299 18.3972C285.984 14.782 283.683 12.3581 278.397 11.1257L268.866 10.5095C267.524 25.2715 266.319 37.24 265.251 46.4149ZM308.757 28.0925C308.921 25.7371 316.165 23.9432 330.489 22.7107C334.241 22.7107 337.623 23.2311 340.636 24.2719C345.046 27.2571 347.25 31.557 347.25 37.1715L346.881 57.0551L346.634 58.6162C344.826 65.1619 339.185 68.4348 329.708 68.4348H325.395C319.287 68.4348 314.741 67.1338 311.756 64.532C308.113 61.0264 306.292 57.3701 306.292 53.5632L307.442 32.8579C307.634 31.0777 308.072 29.4892 308.757 28.0925ZM322.273 35.1996L323.053 56.2746V57.4659C323.053 58.2328 324.491 58.6162 327.367 58.6162H329.298C333.981 58.6162 336.323 56.0144 336.323 50.8107L336.774 33.9672C336.555 32.8443 335.788 32.1596 334.474 31.9131L326.586 31.7077C324.614 31.7077 323.176 32.8716 322.273 35.1996ZM361.547 53.9329L367.997 55.2064C371.584 55.9185 373.707 57.9315 374.364 61.2455C373.981 62.8613 370.53 63.6693 364.012 63.6693C362.067 63.6693 359.849 63.6008 357.356 63.4639C352.399 62.1219 349.921 60.3143 349.921 58.0411C349.921 57.7946 349.948 57.5344 350.003 57.2605L350.167 56.5211C353.591 54.0014 357.384 53.1387 361.547 53.9329ZM356.083 11.4133L372.639 10.6738C373.488 10.8381 373.816 11.6597 373.625 13.1387C371.132 25.2441 369.38 32.899 368.366 36.1034C367.38 39.2804 366.887 43.3201 366.887 48.2225C366.696 49.0442 366.107 49.455 365.121 49.455L357.356 48.962C356.151 48.8251 355.398 48.0034 355.097 46.4971C354.577 35.2133 353.906 24.176 353.084 13.3852C353.248 11.7419 354.248 11.0846 356.083 11.4133Z" fill="#FF1E1E"/>
</svg>
