<svg width="493" height="151" viewBox="0 0 493 151" fill="none" xmlns="http://www.w3.org/2000/svg">
<path d="M40.2494 45.7051C33.4312 53.7339 29.2889 64.1566 29.2889 75.5C29.2889 86.8434 33.4312 97.2661 40.2494 105.295L69.9049 75.5L40.2494 45.7051Z" fill="black"/>
<path d="M104.766 40.4754C96.7745 33.6251 86.4006 29.4634 75.1102 29.4634C63.8199 29.4634 53.4459 33.6251 45.4547 40.4754L75.1102 70.2702L104.766 40.4754Z" fill="black"/>
<path d="M45.4547 110.525C53.4459 117.375 63.8199 121.537 75.1102 121.537C86.4006 121.537 96.7745 117.375 104.766 110.525L75.1102 80.7298L45.4547 110.525Z" fill="black"/>
<path d="M109.971 45.7051L80.3157 75.5L109.971 105.295C116.789 97.2661 120.932 86.8434 120.932 75.5C120.932 64.1566 116.789 53.7339 109.971 45.7051Z" fill="black"/>
<path d="M141.313 0H8.98097C4.03227 0 0 4.05122 0 9.02317V141.977C0 146.949 4.03227 151 8.98097 151H141.313C146.261 151 150.294 146.949 150.294 141.977V9.02317C150.294 4.05122 146.261 0 141.313 0ZM141.313 143.634H137.757L109.971 115.718C100.623 123.894 88.4533 128.902 75.1102 128.902C61.767 128.902 49.5969 123.894 40.2494 115.718L12.4634 143.634H8.98097C8.06454 143.634 7.3314 142.898 7.3314 141.977V138.404L35.0807 110.525C26.9429 101.133 21.9575 88.9059 21.9575 75.5C21.9575 62.0941 26.9429 49.8668 35.0807 40.4754L7.3314 12.5956V9.02317C7.3314 8.10244 8.06454 7.36585 8.98097 7.36585H12.4634L40.2494 35.2824C49.5969 27.1063 61.767 22.0976 75.1102 22.0976C88.4533 22.0976 100.623 27.1063 109.971 35.2824L137.757 7.36585H141.313C142.229 7.36585 142.962 8.10244 142.962 9.02317V12.522L115.14 40.4754C123.277 49.8668 128.263 62.0941 128.263 75.5C128.263 88.9059 123.277 101.133 115.14 110.525L142.962 138.478V141.977C142.962 142.898 142.229 143.634 141.313 143.634Z" fill="black"/>
<path d="M181.599 95.3509C181.599 93.5463 181.855 91.7417 182.222 89.6792L182.479 88.648H195.675L195.162 90.8209C194.905 91.9626 194.795 92.9938 194.795 93.9146C194.795 97.3765 196.848 99.0707 199.927 99.0707C205.169 99.0707 206.966 94.4302 206.966 91.3365C206.966 86.9538 203.52 84.118 199.524 81.1717C194.392 77.4519 188.637 73.327 188.637 63.5304C188.637 51.9292 196.445 42.5378 209.422 42.5378C218.916 42.5378 225.954 47.5465 225.954 57.3431C225.954 59.2582 225.697 61.2102 225.331 63.1253H212.501C212.757 61.468 213.014 60.0317 213.014 58.7426C213.014 55.5385 210.961 54.3599 208.542 54.3599C203.813 54.3599 202.127 58.4848 202.127 61.5785C202.127 66.0716 205.719 69.0548 209.935 72.0012C215.067 75.6104 220.822 79.8458 220.822 89.3846C220.822 100.47 213.014 110.782 198.901 110.782C188.637 110.782 181.599 105.258 181.599 95.3141V95.3509Z" fill="black"/>
<path d="M273.755 59.5529C273.755 61.468 273.498 63.6777 272.985 65.998L270.162 79.6616H243.109L240.947 89.8265C240.69 91.1155 240.58 92.1468 240.58 93.178C240.58 96.8977 242.743 98.7024 247.252 98.7024C250.844 98.7024 253.263 96.3821 254.436 91.226L255.059 88.2797H268.256L267.633 91.3734C265.067 103.858 257.625 110.819 246.482 110.819C233.652 110.819 226.87 104.374 226.87 93.8041C226.87 91.7416 227.127 89.5687 227.64 87.1012L233.029 61.7258C235.595 49.4985 243.036 42.5378 254.18 42.5378C265.983 42.5378 273.791 48.2095 273.791 59.5529H273.755ZM245.419 68.8338H258.762L259.898 63.3095C260.155 62.1678 260.265 61.1365 260.265 60.3631C260.265 56.3856 257.955 54.6914 253.996 54.6914C250.294 54.6914 247.985 56.7538 246.812 62.0204L245.419 68.8338Z" fill="black"/>
<path d="M325.954 43.8268L312.244 109.53H300.441L301.577 102.717C298.241 107.983 293.366 110.819 287.977 110.819C279.913 110.819 274.891 106.326 274.891 97.6712C274.891 95.4983 275.147 93.0307 275.771 90.3422L285.631 43.8268H299.488L289.737 89.5688C289.37 91.1156 289.224 92.4046 289.224 93.5463C289.224 96.8978 290.763 98.7024 294.209 98.7024C297.655 98.7024 300.991 96.1244 302.42 89.5688L312.024 43.8268H325.954Z" fill="black"/>
<path d="M341.46 19.3354H355.316L336.218 109.493H322.362L341.46 19.3354Z" fill="black"/>
<path d="M349.048 93.8041C349.048 91.889 349.195 89.6792 349.672 87.5063L355.317 61.6153C357.883 49.2407 365.324 42.5378 376.358 42.5378C387.392 42.5378 395.713 48.4673 395.713 59.5529C395.713 61.468 395.566 63.6777 395.09 65.8507L389.444 91.7416C386.878 104.116 379.437 110.819 368.403 110.819C357.369 110.819 349.048 104.89 349.048 93.8041ZM375.698 91.4838L381.856 63.1621C382.113 62.1309 382.223 61.0997 382.223 60.2158C382.223 56.3487 380.06 54.6914 376.065 54.6914C371.849 54.6914 369.906 57.6377 369.026 61.9099L362.868 90.2316C362.611 91.2629 362.501 92.2941 362.501 93.178C362.501 97.0451 364.664 98.7024 368.66 98.7024C372.875 98.7024 374.818 95.756 375.698 91.4838Z" fill="black"/>
<path d="M447.619 43.8269L433.139 112.734C430.72 124.078 425.185 130.781 412.098 130.781C399.012 130.781 392.743 125.367 392.743 115.828C392.743 114.907 392.89 113.766 393 112.734H406.086C405.94 113.361 405.94 113.876 405.94 114.392C405.94 117.596 407.992 119.548 411.951 119.548C415.91 119.548 418.22 117.485 419.393 112.219L421.556 101.649C418.623 104.853 414.627 106.547 410.522 106.547C402.311 106.547 397.179 101.907 397.179 93.1413C397.179 90.9683 397.545 88.6481 398.095 85.9227L403.594 59.7739C406.16 47.6571 412.318 42.501 420.383 42.501C427.311 42.501 432.186 46.2208 433.579 52.8132L435.742 43.79H447.619V43.8269ZM424.781 86.5856L429.4 64.8195C429.547 63.6778 429.657 62.6466 429.657 61.7259C429.657 56.5698 427.091 54.6547 423.498 54.6547C419.649 54.6547 418 57.7483 417.083 62.131L411.841 86.6225C411.585 87.7642 411.475 88.9427 411.475 89.9739C411.475 92.9203 412.611 94.9827 416.607 94.9827C419.943 94.9827 423.132 92.8098 424.818 86.6225H424.781V86.5856Z" fill="black"/>
<path d="M446.336 93.8041C446.336 91.889 446.482 89.6792 446.959 87.5063L452.604 61.6153C455.17 49.2407 462.611 42.5378 473.645 42.5378C484.679 42.5378 493 48.4673 493 59.5529C493 61.468 492.853 63.6777 492.34 65.8507L486.695 91.7416C484.129 104.116 476.688 110.819 465.654 110.819C454.62 110.819 446.299 104.89 446.299 93.8041H446.336ZM472.985 91.4838L479.144 63.1621C479.4 62.1309 479.51 61.0997 479.51 60.2158C479.51 56.3487 477.347 54.6914 473.352 54.6914C469.136 54.6914 467.193 57.6377 466.314 61.9099L460.155 90.2316C459.899 91.2629 459.789 92.2941 459.789 93.178C459.789 97.0451 461.951 98.7024 465.947 98.7024C470.163 98.7024 472.105 95.756 472.985 91.4838Z" fill="black"/>
</svg>
